<mxfile host="65bd71144e">
    <diagram name="Overview" id="8gMy8sZW0JhGkMTSzFIM">
        <mxGraphModel dx="884" dy="809" grid="1" gridSize="10" guides="1" tooltips="1" connect="1" arrows="1" fold="1" page="1" pageScale="1" pageWidth="850" pageHeight="1100" math="0" shadow="0">
            <root>
                <mxCell id="0"/>
                <mxCell id="1" parent="0"/>
                <mxCell id="FsvgCmDUhO971994IPeM-8" value="" style="edgeStyle=orthogonalEdgeStyle;rounded=0;orthogonalLoop=1;jettySize=auto;html=1;" parent="1" source="FsvgCmDUhO971994IPeM-1" target="FsvgCmDUhO971994IPeM-7" edge="1">
                    <mxGeometry relative="1" as="geometry"/>
                </mxCell>
                <mxCell id="FsvgCmDUhO971994IPeM-1" value="User Intent" style="rounded=0;whiteSpace=wrap;html=1;" parent="1" vertex="1">
                    <mxGeometry x="365" y="340" width="120" height="60" as="geometry"/>
                </mxCell>
                <mxCell id="3" value="" style="edgeStyle=none;html=1;" parent="1" source="FsvgCmDUhO971994IPeM-2" target="2" edge="1">
                    <mxGeometry relative="1" as="geometry"/>
                </mxCell>
                <mxCell id="FsvgCmDUhO971994IPeM-2" value="User Query" style="shape=parallelogram;perimeter=parallelogramPerimeter;whiteSpace=wrap;html=1;fixedSize=1;" parent="1" vertex="1">
                    <mxGeometry x="35" y="340" width="120" height="60" as="geometry"/>
                </mxCell>
                <mxCell id="FsvgCmDUhO971994IPeM-6" value="Overview of Rag-based Chatbot" style="text;html=1;align=center;verticalAlign=middle;whiteSpace=wrap;rounded=0;fontSize=24;fontStyle=1" parent="1" vertex="1">
                    <mxGeometry x="25" y="140" width="385" height="40" as="geometry"/>
                </mxCell>
                <mxCell id="FsvgCmDUhO971994IPeM-10" value="" style="edgeStyle=orthogonalEdgeStyle;rounded=0;orthogonalLoop=1;jettySize=auto;html=1;endArrow=none;endFill=0;dashed=1;" parent="1" source="FsvgCmDUhO971994IPeM-7" target="FsvgCmDUhO971994IPeM-9" edge="1">
                    <mxGeometry relative="1" as="geometry"/>
                </mxCell>
                <mxCell id="FsvgCmDUhO971994IPeM-12" value="" style="edgeStyle=orthogonalEdgeStyle;rounded=0;orthogonalLoop=1;jettySize=auto;html=1;" parent="1" source="FsvgCmDUhO971994IPeM-7" target="FsvgCmDUhO971994IPeM-11" edge="1">
                    <mxGeometry relative="1" as="geometry"/>
                </mxCell>
                <mxCell id="FsvgCmDUhO971994IPeM-7" value="Retriever" style="shape=process;whiteSpace=wrap;html=1;backgroundOutline=1;" parent="1" vertex="1">
                    <mxGeometry x="535" y="340" width="120" height="60" as="geometry"/>
                </mxCell>
                <mxCell id="FsvgCmDUhO971994IPeM-9" value="Vector DB" style="shape=cylinder3;whiteSpace=wrap;html=1;boundedLbl=1;backgroundOutline=1;size=15;" parent="1" vertex="1">
                    <mxGeometry x="565" y="210" width="60" height="80" as="geometry"/>
                </mxCell>
                <mxCell id="10" value="" style="edgeStyle=none;html=1;" edge="1" parent="1" source="FsvgCmDUhO971994IPeM-11" target="9">
                    <mxGeometry relative="1" as="geometry"/>
                </mxCell>
                <mxCell id="FsvgCmDUhO971994IPeM-11" value="Relevant Documents" style="rounded=0;whiteSpace=wrap;html=1;" parent="1" vertex="1">
                    <mxGeometry x="705" y="340" width="120" height="60" as="geometry"/>
                </mxCell>
                <mxCell id="4" value="" style="edgeStyle=none;html=1;" parent="1" source="2" target="FsvgCmDUhO971994IPeM-1" edge="1">
                    <mxGeometry relative="1" as="geometry"/>
                </mxCell>
                <mxCell id="2" value="User Intent Classification" style="shape=cube;whiteSpace=wrap;html=1;boundedLbl=1;backgroundOutline=1;darkOpacity=0.05;darkOpacity2=0.1;" parent="1" vertex="1">
                    <mxGeometry x="195" y="330" width="120" height="80" as="geometry"/>
                </mxCell>
                <mxCell id="12" value="" style="edgeStyle=none;html=1;" edge="1" parent="1" source="9" target="11">
                    <mxGeometry relative="1" as="geometry"/>
                </mxCell>
                <mxCell id="9" value="Rerank Documents (BM25)" style="shape=process;whiteSpace=wrap;html=1;backgroundOutline=1;" vertex="1" parent="1">
                    <mxGeometry x="870" y="340" width="120" height="60" as="geometry"/>
                </mxCell>
                <mxCell id="14" value="" style="edgeStyle=none;html=1;" edge="1" parent="1" source="11" target="13">
                    <mxGeometry relative="1" as="geometry"/>
                </mxCell>
                <mxCell id="11" value="Narrowed Relevant Documents" style="rounded=0;whiteSpace=wrap;html=1;" vertex="1" parent="1">
                    <mxGeometry x="1040" y="340" width="120" height="60" as="geometry"/>
                </mxCell>
                <mxCell id="17" value="" style="edgeStyle=none;html=1;" edge="1" parent="1" source="13" target="16">
                    <mxGeometry relative="1" as="geometry"/>
                </mxCell>
                <mxCell id="13" value="" style="verticalLabelPosition=bottom;verticalAlign=top;html=1;shape=mxgraph.flowchart.summing_function;" vertex="1" parent="1">
                    <mxGeometry x="1210" y="335" width="70" height="70" as="geometry"/>
                </mxCell>
                <mxCell id="15" style="edgeStyle=none;html=1;entryX=0.5;entryY=1;entryDx=0;entryDy=0;entryPerimeter=0;rounded=0;curved=0;" edge="1" parent="1" source="FsvgCmDUhO971994IPeM-2" target="13">
                    <mxGeometry relative="1" as="geometry">
                        <Array as="points">
                            <mxPoint x="95" y="510"/>
                            <mxPoint x="430" y="510"/>
                            <mxPoint x="900" y="510"/>
                            <mxPoint x="1245" y="510"/>
                        </Array>
                    </mxGeometry>
                </mxCell>
                <mxCell id="19" value="" style="edgeStyle=none;html=1;" edge="1" parent="1" source="16" target="18">
                    <mxGeometry relative="1" as="geometry"/>
                </mxCell>
                <mxCell id="16" value="LLM" style="shape=cube;whiteSpace=wrap;html=1;boundedLbl=1;backgroundOutline=1;darkOpacity=0.05;darkOpacity2=0.1;" vertex="1" parent="1">
                    <mxGeometry x="1330" y="330" width="120" height="80" as="geometry"/>
                </mxCell>
                <mxCell id="18" value="Response" style="rounded=0;whiteSpace=wrap;html=1;" vertex="1" parent="1">
                    <mxGeometry x="1500" y="340" width="120" height="60" as="geometry"/>
                </mxCell>
            </root>
        </mxGraphModel>
    </diagram>
    <diagram id="6JlraqUtAJYwR874fT2K" name="User Intent Classification">
        <mxGraphModel dx="894" dy="908" grid="1" gridSize="10" guides="1" tooltips="1" connect="1" arrows="1" fold="1" page="1" pageScale="1" pageWidth="850" pageHeight="1100" math="0" shadow="0">
            <root>
                <mxCell id="0"/>
                <mxCell id="1" parent="0"/>
                <mxCell id="zQzjHfLXQbghwU_lqm5g-10" style="edgeStyle=none;html=1;entryX=0.5;entryY=1;entryDx=0;entryDy=0;rounded=0;curved=1;" edge="1" parent="1" source="crOhnGwYCN_B-G1lrLSt-1" target="73xYT71OfJ9kRX5CTpWz-3">
                    <mxGeometry relative="1" as="geometry"/>
                </mxCell>
                <mxCell id="crOhnGwYCN_B-G1lrLSt-1" value="Query and Intent" style="rounded=0;whiteSpace=wrap;html=1;" vertex="1" parent="1">
                    <mxGeometry x="130" y="450" width="120" height="60" as="geometry"/>
                </mxCell>
                <mxCell id="zQzjHfLXQbghwU_lqm5g-12" style="edgeStyle=none;html=1;entryX=0;entryY=0;entryDx=0;entryDy=0;exitX=0.75;exitY=1;exitDx=0;exitDy=0;" edge="1" parent="1" source="73xYT71OfJ9kRX5CTpWz-1" target="73xYT71OfJ9kRX5CTpWz-4">
                    <mxGeometry relative="1" as="geometry"/>
                </mxCell>
                <mxCell id="73xYT71OfJ9kRX5CTpWz-1" value="TF-IDF" style="shape=process;whiteSpace=wrap;html=1;backgroundOutline=1;" vertex="1" parent="1">
                    <mxGeometry x="330" y="230" width="120" height="60" as="geometry"/>
                </mxCell>
                <mxCell id="zQzjHfLXQbghwU_lqm5g-9" style="edgeStyle=none;html=1;entryX=0.25;entryY=1;entryDx=0;entryDy=0;rounded=0;curved=1;" edge="1" parent="1" source="73xYT71OfJ9kRX5CTpWz-3" target="73xYT71OfJ9kRX5CTpWz-1">
                    <mxGeometry relative="1" as="geometry"/>
                </mxCell>
                <mxCell id="73xYT71OfJ9kRX5CTpWz-3" value="Clean Query" style="shape=process;whiteSpace=wrap;html=1;backgroundOutline=1;" vertex="1" parent="1">
                    <mxGeometry x="160" y="320" width="120" height="60" as="geometry"/>
                </mxCell>
                <mxCell id="zQzjHfLXQbghwU_lqm5g-7" value="" style="edgeStyle=none;html=1;exitX=0.5;exitY=1;exitDx=0;exitDy=0;entryX=0.5;entryY=0;entryDx=0;entryDy=0;" edge="1" parent="1" source="73xYT71OfJ9kRX5CTpWz-4" target="73xYT71OfJ9kRX5CTpWz-5">
                    <mxGeometry relative="1" as="geometry"/>
                </mxCell>
                <mxCell id="73xYT71OfJ9kRX5CTpWz-4" value="Logistic Regression" style="shape=process;whiteSpace=wrap;html=1;backgroundOutline=1;" vertex="1" parent="1">
                    <mxGeometry x="500" y="330" width="120" height="60" as="geometry"/>
                </mxCell>
                <mxCell id="zQzjHfLXQbghwU_lqm5g-6" style="edgeStyle=none;html=1;entryX=1;entryY=0.5;entryDx=0;entryDy=0;" edge="1" parent="1" source="73xYT71OfJ9kRX5CTpWz-5" target="73xYT71OfJ9kRX5CTpWz-6">
                    <mxGeometry relative="1" as="geometry"/>
                </mxCell>
                <mxCell id="73xYT71OfJ9kRX5CTpWz-5" value="Evaluate" style="rounded=0;whiteSpace=wrap;html=1;" vertex="1" parent="1">
                    <mxGeometry x="530" y="460" width="120" height="60" as="geometry"/>
                </mxCell>
                <mxCell id="zQzjHfLXQbghwU_lqm5g-2" value="" style="edgeStyle=none;html=1;" edge="1" parent="1" source="73xYT71OfJ9kRX5CTpWz-6" target="zQzjHfLXQbghwU_lqm5g-1">
                    <mxGeometry relative="1" as="geometry"/>
                </mxCell>
                <mxCell id="zQzjHfLXQbghwU_lqm5g-3" value="yes" style="edgeLabel;html=1;align=center;verticalAlign=middle;resizable=0;points=[];" vertex="1" connectable="0" parent="zQzjHfLXQbghwU_lqm5g-2">
                    <mxGeometry x="-0.05" y="3" relative="1" as="geometry">
                        <mxPoint as="offset"/>
                    </mxGeometry>
                </mxCell>
                <mxCell id="zQzjHfLXQbghwU_lqm5g-4" value="" style="edgeStyle=none;html=1;" edge="1" parent="1" source="73xYT71OfJ9kRX5CTpWz-6" target="73xYT71OfJ9kRX5CTpWz-9">
                    <mxGeometry relative="1" as="geometry"/>
                </mxCell>
                <mxCell id="zQzjHfLXQbghwU_lqm5g-5" value="no" style="edgeLabel;html=1;align=center;verticalAlign=middle;resizable=0;points=[];" vertex="1" connectable="0" parent="zQzjHfLXQbghwU_lqm5g-4">
                    <mxGeometry x="0.1536" y="-1" relative="1" as="geometry">
                        <mxPoint as="offset"/>
                    </mxGeometry>
                </mxCell>
                <mxCell id="73xYT71OfJ9kRX5CTpWz-6" value="better?" style="rhombus;whiteSpace=wrap;html=1;" vertex="1" parent="1">
                    <mxGeometry x="440" y="580" width="80" height="80" as="geometry"/>
                </mxCell>
                <mxCell id="zQzjHfLXQbghwU_lqm5g-11" style="edgeStyle=none;html=1;entryX=0.5;entryY=1;entryDx=0;entryDy=0;rounded=0;curved=1;" edge="1" parent="1" source="73xYT71OfJ9kRX5CTpWz-9" target="crOhnGwYCN_B-G1lrLSt-1">
                    <mxGeometry relative="1" as="geometry"/>
                </mxCell>
                <mxCell id="73xYT71OfJ9kRX5CTpWz-9" value="Add more data" style="rounded=0;whiteSpace=wrap;html=1;" vertex="1" parent="1">
                    <mxGeometry x="240" y="590" width="120" height="60" as="geometry"/>
                </mxCell>
                <mxCell id="zQzjHfLXQbghwU_lqm5g-1" value="User Intent Classification" style="shape=cube;whiteSpace=wrap;html=1;boundedLbl=1;backgroundOutline=1;darkOpacity=0.05;darkOpacity2=0.1;" vertex="1" parent="1">
                    <mxGeometry x="420" y="740" width="120" height="80" as="geometry"/>
                </mxCell>
            </root>
        </mxGraphModel>
    </diagram>
</mxfile>